<!DOCTYPE svg PUBLIC "-//W3C//DTD SVG 1.1//EN" "http://www.w3.org/Graphics/SVG/1.1/DTD/svg11.dtd">
<!-- Uploaded to: SVG Repo, www.svgrepo.com, Transformed by: SVG Repo Mixer Tools -->
<svg fill="#ffffff" width="800px" height="800px" viewBox="0 0 24 24" xmlns="http://www.w3.org/2000/svg">
<g id="SVGRepo_bgCarrier" stroke-width="0"/>
<g id="SVGRepo_tracerCarrier" stroke-linecap="round" stroke-linejoin="round"/>
<g id="SVGRepo_iconCarrier">
<path d="M6,22H18a3,3,0,0,0,3-3V7a2,2,0,0,0-2-2H17V3a1,1,0,0,0-2,0V5H9V3A1,1,0,0,0,7,3V5H5A2,2,0,0,0,3,7V19A3,3,0,0,0,6,22ZM5,12.5a.5.5,0,0,1,.5-.5h13a.5.5,0,0,1,.5.5V19a1,1,0,0,1-1,1H6a1,1,0,0,1-1-1Z"/>
</g>
</svg>