<?xml version="1.0" encoding="utf-8"?>
<!-- Uploaded to: SVG Repo, www.svgrepo.com, Generator: SVG Repo Mixer Tools -->
<svg width="800px" height="800px" viewBox="0 -43.5 1111 1111" class="icon"  version="1.1" xmlns="http://www.w3.org/2000/svg"><path d="M212.114286 738.742857h-87.771429v124.342857c0 32.182857 26.331429 58.514286 58.514286 58.514286h775.314286c32.182857 0 58.514286-26.331429 58.514285-58.514286v-36.571428h-804.571428v-87.771429zM124.342857 694.857143v43.885714h892.342857v-526.628571h-416.914285c-35.84 0-68.754286-36.571429-81.92-90.697143-3.657143-15.36-13.897143-26.331429-27.062858-32.914286-6.582857-2.925714-13.897143-5.12-21.942857-5.851428-11.702857-1.462857-27.062857-2.194286-51.2-2.194286H212.114286c-48.274286 0-87.771429 39.497143-87.771429 87.771428h293.302857c20.48 0 32.914286 0.731429 39.497143 1.462858 0 0-1.462857-0.731429-3.657143-1.462858-9.508571-4.388571-17.554286-13.165714-20.48-26.331428 21.211429 89.965714 84.114286 157.988571 166.765715 157.988571h373.028571l-43.885714-43.885714v438.857143l43.885714-43.885714h-804.571429l43.885715 43.885714v-433.005714h-87.771429V694.857143z" fill="#0C92F2" /><path d="M307.2 263.314286v299.885714h526.628571v-166.034286h-59.977142l-165.302858-0.731428c-89.965714 0-178.468571-54.857143-223.085714-133.851429H307.2z" fill="#A8C8E6" /><path d="M307.2 263.314286v299.885714h171.885714s2.194286 0.731429 0.731429-204.068571c-36.571429-30.72-71.68-57.051429-94.354286-95.817143H307.2z" fill="#61B6F2" /><path d="M652.434286 563.2h181.394285v-166.034286h-183.588571c4.388571 166.034286 2.194286 166.034286 2.194286 166.034286z" fill="#FC830A" /></svg>